<?xml version="1.0" standalone="no"?>
<!DOCTYPE svg PUBLIC "-//W3C//DTD SVG 20010904//EN"
 "http://www.w3.org/TR/2001/REC-SVG-20010904/DTD/svg10.dtd">
<svg version="1.0" xmlns="http://www.w3.org/2000/svg"
 width="300.000000pt" height="300.000000pt" viewBox="0 0 300.000000 300.000000"
 preserveAspectRatio="xMidYMid meet">
<metadata>
Created by potrace 1.14, written by Peter Selinger 2001-2017
</metadata>
<g transform="translate(0.000000,300.000000) scale(0.100000,-0.100000)"
fill="#000000" stroke="none">
<path d="M2192 2770 c-40 -5 -79 -11 -87 -14 -13 -5 -15 -69 -15 -475 0 -297
4 -472 10 -476 5 -3 64 -11 130 -17 426 -39 664 137 664 492 0 365 -246 537
-702 490z m350 -135 c64 -23 141 -94 172 -158 55 -113 55 -281 0 -394 -31 -64
-108 -135 -172 -158 -32 -12 -90 -19 -179 -22 l-133 -5 0 382 0 382 133 -5
c89 -3 147 -10 179 -22z"/>
<path d="M408 2683 c-90 -195 -348 -850 -348 -883 0 -7 24 -10 67 -8 l68 3 44
123 43 122 226 -2 225 -3 43 -119 c24 -65 45 -121 48 -123 2 -2 35 -3 73 -1
l70 3 -103 274 c-103 272 -211 533 -266 644 l-28 57 -61 0 -60 0 -41 -87z
m151 -185 c54 -128 133 -340 128 -345 -2 -2 -85 -2 -185 -1 l-180 3 52 140
c74 196 128 318 136 308 5 -4 26 -52 49 -105z"/>
<path d="M1398 2683 c-90 -195 -348 -850 -348 -884 0 -6 28 -9 67 -7 l68 3 44
123 43 122 226 -2 226 -3 42 -118 c23 -65 44 -120 47 -123 2 -3 36 -4 74 -2
l70 3 -102 272 c-103 271 -212 536 -267 646 l-28 57 -61 0 -60 0 -41 -87z
m151 -185 c54 -128 133 -340 128 -345 -2 -2 -85 -2 -184 -1 l-181 3 43 116
c63 172 137 341 146 332 4 -4 25 -52 48 -105z"/>
<path d="M372 1170 c-40 -5 -79 -11 -87 -14 -13 -5 -15 -70 -15 -486 l0 -480
70 0 70 0 0 180 0 180 79 0 c177 0 313 35 383 98 55 50 79 101 85 186 20 261
-184 378 -585 336z m344 -138 c53 -27 91 -73 100 -118 10 -52 -1 -123 -23
-153 -50 -67 -125 -91 -283 -91 l-100 0 0 196 0 196 133 -4 c110 -3 139 -8
173 -26z"/>
<path d="M2232 1170 c-40 -5 -79 -11 -87 -14 -13 -5 -15 -70 -15 -486 l0 -480
70 0 70 0 0 180 0 180 79 0 c317 0 471 103 471 315 0 238 -205 345 -588 305z
m344 -138 c53 -27 91 -73 100 -118 10 -52 -1 -123 -23 -153 -50 -67 -125 -91
-283 -91 l-100 0 0 196 0 196 133 -4 c110 -3 139 -8 173 -26z"/>
<path d="M1130 680 l0 -490 70 0 70 0 0 225 0 225 240 0 240 0 0 -225 0 -225
70 0 70 0 0 490 0 490 -70 0 -70 0 0 -205 0 -205 -240 0 -240 0 0 205 0 205
-70 0 -70 0 0 -490z"/>
</g>
</svg>
